<?xml version="1.0" encoding="UTF-8"?>
<svg id="Layer_1" data-name="Layer 1" xmlns="http://www.w3.org/2000/svg" viewBox="0 0 141.85 141.77">
  <defs>
    <style>
      .cls-1 {
        fill: #fff;
      }

      .cls-2 {
        fill: #d271ff;
      }
    </style>
  </defs>
  <g>
    <circle class="cls-1" cx="71.16" cy="70.93" r="65.68"/>
    <g>
      <path class="cls-2" d="M57.3,1.24C24.65,7.6,0,36.34,0,70.85c0,.39.02.78.03,1.18C64.48,19.2,62.02,5,57.3,1.24Z"/>
      <path class="cls-2" d="M74.05,0l-3.79,21L86.4,1.63c-4-.89-8.12-1.45-12.35-1.63Z"/>
      <path class="cls-2" d="M107.26,9.93c-4.67,4.8-12.22,12.53-22.95,23.44-14.65,14.9-22.11,76.61-24.99,107.44,3.78.62,7.65.96,11.6.96,39.17,0,70.93-31.75,70.93-70.93,0-25.89-13.88-48.53-34.59-60.91Z"/>
      <path class="cls-2" d="M53.19,75.2c-10.04-13.38-22.75-1.34-22.75-1.34l-25.65,22.61c6.82,17.6,20.45,31.79,37.67,39.34,6.4-16.43,18.26-50.57,10.73-60.62Z"/>
    </g>
  </g>
  <path class="cls-1" d="M89.27,88.15s.57-12.17-6.23-19.42c0,0,23.76,15.54,28.79-7.31,0,0,5.03,6.85,10.05,5.26,0,0-10.74,10.22-11.65,28.79,0,0-10.74,19.42-21.25,20.79,0,0,12.6-22.62.29-28.1Z"/>
  <circle class="cls-1" cx="99.59" cy="50.72" r="5.04"/>
</svg>