<?xml version="1.0" encoding="UTF-8"?>
<svg id="Layer_1" data-name="Layer 1" xmlns="http://www.w3.org/2000/svg" viewBox="0 0 141.88 141.84">
  <defs>
    <style>
      .cls-1 {
        fill: #fff;
      }

      .cls-2 {
        fill: #d271ff;
      }

      .cls-3 {
        fill: #6875f5;
      }

      .cls-4 {
        fill: #475ae2;
      }
    </style>
  </defs>
  <circle class="cls-1" cx="71.18" cy="70.87" r="65.68"/>
  <path class="cls-4" d="M30.16,59.06s16.39,22.6,27.04-.33c3.23-6.96-27.04.33-27.04.33Z"/>
  <g>
    <path class="cls-3" d="M45.42,137.09C14.37,125.16-4.91,92.57,1.09,58.59c.07-.39.16-.77.23-1.15,54.28,63.23,49.39,76.78,44.09,79.66Z"/>
    <path class="cls-2" d="M61.7,141.23l-.08-21.34,12.53,21.88c-4.09.18-8.25.02-12.44-.54Z"/>
    <path class="cls-3" d="M96.13,137.22c-3.77-5.54-9.85-14.46-18.53-27.08-11.84-17.22-8.46-79.29-5.93-110.14,3.83.04,7.7.38,11.59,1.07,38.58,6.81,64.33,43.6,57.52,82.18-4.5,25.5-22.1,45.38-44.66,53.97Z"/>
    <path class="cls-3" d="M54.23,63.55c-12.21,11.43-22.64-2.64-22.64-2.64l-21.33-26.73C20.04,18.05,35.93,6.44,54.2,1.99c3.44,17.29,9.19,52.98.03,61.56Z"/>
  </g>
  <path class="cls-4" d="M1.33,57.43l5.24-.52,48.33,29.56s6.22,3.7,7.81,9.59,9.94,31.33,9.94,31.33l2.67,9.06-1.19,5.32L1.33,57.43Z"/>
  <path class="cls-3" d="M13.79,72.39s20.98,23.41,36.12,29.62c15.14,6.21,24.23,39.76,24.23,39.76l-12.44-.54s-7.43-.19-16.28-4.13c-19.23-8.59-31.63-64.7-31.63-64.7Z"/>
  <path class="cls-3" d="M1.19,58.55s48.07,31.31,49.9,32.37c0,0,10.13,6.17,17.43,36.17,9.77,40.19-57.78-48.74-57.78-48.74L1.19,58.55Z"/>
</svg>