<?xml version="1.0" encoding="UTF-8"?>
<svg id="Layer_1" data-name="Layer 1" xmlns="http://www.w3.org/2000/svg" viewBox="0 0 141.84 141.85">
  <defs>
    <style>
      .cls-1 {
        fill: #fff;
      }

      .cls-2 {
        fill: #d271ff;
      }
    </style>
  </defs>
  <g>
    <circle class="cls-1" cx="70.79" cy="71.12" r="65.68"/>
    <g>
      <path class="cls-2" d="M42.18,6.08c30.39-13.52,67.07-4.1,86.86,24.17.23.32.43.66.65.98C46.59,24.91,40.47,11.86,42.18,6.08Z"/>
      <path class="cls-2" d="M27.74,14.67l15.15,15.03-24.33-6.61c2.77-3.02,5.82-5.85,9.18-8.42Z"/>
      <path class="cls-2" d="M6.23,41.85c6.58,1.25,17.19,3.26,32.25,6.05,20.55,3.81,62.05,50.09,82.08,73.69-2.74,2.68-5.72,5.17-8.96,7.44-32.09,22.46-76.32,14.65-98.78-17.44C-2.03,90.38-3.64,63.87,6.23,41.85Z"/>
      <path class="cls-2" d="M87.95,64.32c.55-16.72,17.87-14.14,17.87-14.14l33.98,3.81c4.5,18.33,1.47,37.77-8.3,53.83-14.66-9.79-43.96-30.96-43.55-43.51Z"/>
    </g>
  </g>
  <path class="cls-2" d="M110.29,29.47s-31.39-1.72-46.48,4.6c-15.1,6.31-45.24-10.98-45.24-10.98l9.18-8.42s5.38-5.12,14.43-8.58C61.85-1.44,110.29,29.47,110.29,29.47Z"/>
</svg>